<svg width="216" height="48" viewBox="0 0 216 48" fill="none" xmlns="http://www.w3.org/2000/svg">
<path d="M101.17 18.0384H110.076C110.076 18.9292 110.008 19.8197 109.939 20.5049C109.871 21.2584 109.734 21.9432 109.46 22.5601C109.117 23.4506 108.706 24.2728 108.158 24.9576C107.61 25.6428 106.993 26.2594 106.24 26.6706C105.486 27.1502 104.664 27.4928 103.774 27.7667C102.883 28.0406 101.924 28.109 100.965 28.109C99.5946 28.109 98.4301 27.9037 97.2657 27.4241C96.1693 27.0129 95.2102 26.328 94.388 25.5745C93.5658 24.7523 92.9496 23.7929 92.5384 22.6971C92.1275 21.601 91.8535 20.3676 91.8535 18.9975C91.8535 17.6275 92.0588 16.3944 92.5384 15.298C92.9496 14.2019 93.5658 13.2431 94.388 12.4209C95.2102 11.5987 96.1693 10.9822 97.2657 10.5713C98.3618 10.16 99.6632 9.88611 101.034 9.88611C102.815 9.88611 104.39 10.297 105.761 11.0505C107.131 11.8044 108.227 13.0375 108.98 14.6818L104.733 16.4627C104.322 15.5036 103.842 14.8187 103.157 14.4078C102.541 13.9966 101.787 13.791 100.965 13.791C100.28 13.791 99.6632 13.9279 99.1153 14.2019C98.5671 14.4761 98.0876 14.8187 97.6763 15.298C97.2657 15.7776 96.9915 16.3258 96.7858 17.011C96.5802 17.6958 96.4436 18.381 96.4436 19.2032C96.4436 19.9567 96.5119 20.6418 96.7175 21.2584C96.9228 21.8749 97.1971 22.4232 97.608 22.9027C98.0192 23.382 98.4301 23.7246 99.0467 23.9988C99.5946 24.2728 100.28 24.4097 101.033 24.4097C101.445 24.4097 101.924 24.3411 102.335 24.2728C102.746 24.2041 103.089 23.9988 103.431 23.7929C103.774 23.5876 104.048 23.3136 104.253 22.9027C104.459 22.5601 104.596 22.1492 104.664 21.601H101.17V18.0384Z" fill="#060809"/>
<path d="M117.407 10.4343V23.8618H122.819V27.6297H112.954V10.4343H117.407Z" fill="#060809"/>
<path d="M128.984 19.0662C128.984 19.7511 129.121 20.3679 129.395 20.9844C129.669 21.5323 130.012 22.0806 130.423 22.4915C130.834 22.9027 131.382 23.245 131.999 23.5189C132.615 23.7249 133.232 23.8619 133.848 23.8619C134.534 23.8619 135.15 23.7249 135.698 23.5189C136.315 23.3136 136.794 22.971 137.274 22.4915C137.753 22.0806 138.096 21.5323 138.37 20.9844C138.644 20.4362 138.781 19.7511 138.781 19.0662C138.781 18.3813 138.644 17.7645 138.37 17.1479C138.096 16.5997 137.753 16.0518 137.274 15.6409C136.794 15.2297 136.315 14.8874 135.698 14.6131C135.081 14.4075 134.465 14.2705 133.848 14.2705C133.163 14.2705 132.547 14.4075 131.999 14.6131C131.382 14.8187 130.903 15.1613 130.423 15.6409C130.012 16.0518 129.601 16.5997 129.395 17.1479C129.121 17.6958 128.984 18.3813 128.984 19.0662ZM124.257 19.0662C124.257 17.7645 124.463 16.5997 124.943 15.5036C125.422 14.4075 126.039 13.4487 126.929 12.6265C127.751 11.8044 128.779 11.1878 129.943 10.7083C131.108 10.2287 132.41 10.0231 133.78 10.0231C135.15 10.0231 136.452 10.2287 137.617 10.7083C138.781 11.1878 139.808 11.8044 140.631 12.6265C141.453 13.4487 142.138 14.4075 142.617 15.5036C143.097 16.5997 143.302 17.8331 143.302 19.0662C143.302 20.3679 143.097 21.5323 142.617 22.6288C142.138 23.7249 141.453 24.6837 140.631 25.5059C139.808 26.328 138.781 26.9445 137.617 27.4241C136.452 27.9037 135.15 28.109 133.78 28.109C132.341 28.109 131.108 27.9037 129.943 27.4241C128.779 26.9445 127.751 26.328 126.929 25.5059C126.107 24.6837 125.422 23.7249 124.943 22.6288C124.532 21.5323 124.257 20.2993 124.257 19.0662Z" fill="#060809"/>
<path d="M150.701 24.2043H151.66C152.756 24.2043 153.579 24.0673 154.058 23.7933C154.538 23.5194 154.812 23.0395 154.812 22.4233C154.812 21.8064 154.538 21.3272 154.058 21.0529C153.579 20.779 152.756 20.6417 151.66 20.6417H150.701V24.2043ZM150.701 17.2164H151.523C152.894 17.2164 153.647 16.6685 153.647 15.5724C153.647 14.476 152.962 13.9281 151.523 13.9281H150.701V17.2164ZM146.248 10.4344H152.962C154.538 10.4344 155.771 10.8454 156.593 11.5989C157.415 12.3524 157.826 13.4485 157.826 14.8872C157.826 15.778 157.689 16.4629 157.346 17.0797C157.004 17.6276 156.524 18.1072 155.908 18.5181C156.524 18.6551 157.072 18.8607 157.552 19.066C158.032 19.3403 158.374 19.6142 158.648 20.0255C158.922 20.3677 159.128 20.779 159.265 21.2585C159.402 21.7381 159.47 22.2173 159.47 22.6972C159.47 23.5194 159.333 24.2042 159.059 24.8208C158.785 25.4373 158.374 25.9852 157.895 26.3965C157.415 26.8074 156.73 27.15 156.045 27.3556C155.292 27.5609 154.469 27.6982 153.579 27.6982H146.385V10.4344H146.248Z" fill="#060809"/>
<path d="M171.528 21.2586L169.541 15.5038L167.554 21.2586H171.528ZM172.692 24.6839H166.253L165.225 27.6983H160.43L167.006 10.4342H171.938L178.515 27.6983H173.72L172.692 24.6839Z" fill="#060809"/>
<path d="M184.955 10.4343V23.8618H190.367V27.6297H180.502V10.4343H184.955Z" fill="#060809"/>
<path d="M17.3857 21.8066C17.3857 21.464 17.317 21.1214 17.1801 20.7789C17.0431 20.4363 16.8375 20.1623 16.6322 19.8884C16.3579 19.6141 16.084 19.4775 15.7414 19.2715C15.3988 19.1345 15.0565 19.0662 14.6453 19.0662C14.303 19.0662 13.9604 19.1345 13.6178 19.2715C13.2749 19.4088 13.001 19.6141 12.7957 19.8197C12.59 20.0937 12.3847 20.3676 12.2474 20.7102C12.1105 21.0528 12.0421 21.3957 12.0421 21.738C12.0421 22.0806 12.1105 22.4232 12.2474 22.7654C12.3847 23.108 12.59 23.382 12.7957 23.5876C13.0696 23.7932 13.3435 23.9988 13.6861 24.1358C14.0287 24.2728 14.3713 24.3414 14.7139 24.3414C15.0565 24.3414 15.3988 24.2728 15.7414 24.1358C16.084 23.9988 16.3579 23.7932 16.5635 23.5876C16.7688 23.3136 16.9748 23.0394 17.1114 22.7654C17.3171 22.4915 17.3857 22.2172 17.3857 21.8066ZM12.1788 33.5212H8V15.9149H12.1105V17.2163C13.001 16.1202 14.2344 15.5723 15.7414 15.5723C16.5635 15.5723 17.3857 15.7092 18.0706 16.0518C18.8244 16.3944 19.4406 16.8053 19.9888 17.4219C20.5367 17.9701 20.948 18.6553 21.2222 19.4088C21.4962 20.1623 21.7015 20.9845 21.7015 21.875C21.7015 22.7654 21.5645 23.5876 21.2222 24.2728C20.948 25.0263 20.5367 25.6432 19.9888 26.2594C19.4406 26.8076 18.8244 27.2872 18.1392 27.5611C17.454 27.9037 16.6322 28.0407 15.81 28.0407C14.3713 28.0407 13.1383 27.5611 12.1788 26.5333V33.5212Z" fill="#2CACE2"/>
<path d="M27.8672 21.738C27.8672 22.149 27.9358 22.4916 28.0728 22.8341C28.2097 23.1767 28.4154 23.4507 28.6207 23.7249C28.8263 23.9989 29.1689 24.1359 29.4428 24.2728C29.7854 24.4098 30.128 24.4785 30.5389 24.4785C30.8815 24.4785 31.2241 24.4098 31.5667 24.2728C31.9093 24.1359 32.1833 23.9302 32.3886 23.7249C32.5942 23.4507 32.7998 23.1767 32.9368 22.9028C33.0741 22.5602 33.1424 22.2176 33.1424 21.875C33.1424 21.5324 33.0741 21.1898 32.9368 20.8472C32.7998 20.5049 32.5942 20.231 32.3886 19.9567C32.1833 19.6828 31.8407 19.5455 31.5667 19.4088C31.2241 19.2715 30.8815 19.2032 30.5389 19.2032C30.128 19.2032 29.7854 19.2715 29.4428 19.4088C29.1002 19.5455 28.8263 19.7511 28.6207 19.9567C28.4154 20.231 28.2097 20.505 28.0728 20.7789C27.9358 21.0528 27.8672 21.3954 27.8672 21.738ZM33.1424 15.9149H37.3215V27.6295H33.1424V26.3281C32.2519 27.4242 31.0871 27.9724 29.5801 27.9724C28.758 27.9724 27.9358 27.8351 27.2506 27.4925C26.5658 27.1502 25.8803 26.739 25.401 26.1908C24.8528 25.6429 24.4419 24.9577 24.1679 24.2042C23.894 23.4507 23.6884 22.6285 23.6884 21.738C23.6884 20.9159 23.8253 20.0937 24.0993 19.3402C24.3732 18.5867 24.7845 17.9015 25.3324 17.3533C25.8802 16.8054 26.4971 16.3258 27.1823 15.9836C27.8672 15.641 28.6893 15.5037 29.5801 15.5037C31.0185 15.5037 32.2519 15.9836 33.2107 17.011V15.9149H33.1424Z" fill="#2CACE2"/>
<path d="M48.9674 19.7514C48.2825 19.2718 47.5287 18.9979 46.7752 18.9979C46.3643 18.9979 46.0217 19.0662 45.6791 19.2032C45.3368 19.3405 45.0629 19.5458 44.7886 19.8197C44.5147 20.094 44.309 20.3679 44.1721 20.7102C44.0348 21.0528 43.9665 21.464 43.9665 21.875C43.9665 22.2862 44.0348 22.6971 44.1721 23.0397C44.309 23.382 44.5147 23.6562 44.7886 23.9302C45.0629 24.2041 45.3368 24.4098 45.6791 24.5467C46.0217 24.684 46.4326 24.7523 46.7752 24.7523C47.5287 24.7523 48.2825 24.4781 48.9674 23.9302V27.4241C47.94 27.8354 46.9808 28.1093 46.0903 28.1093C45.2682 28.1093 44.446 27.972 43.6239 27.6981C42.8704 27.4241 42.1852 27.0132 41.5689 26.465C40.9521 25.9171 40.5412 25.3002 40.1299 24.5467C39.7873 23.7932 39.582 22.971 39.582 22.0122C39.582 21.0528 39.719 20.2306 40.0616 19.4771C40.4042 18.7236 40.8834 18.0384 41.4317 17.4905C41.9799 16.9426 42.7334 16.5314 43.4872 16.1888C44.309 15.8465 45.1309 15.7092 46.0903 15.7092C47.1178 15.7092 48.0086 15.9148 48.8991 16.3261V19.7514H48.9674Z" fill="#2CACE2"/>
<path d="M55.4758 27.6297H51.3653V15.9148H55.4758V27.6297ZM51.0227 11.3935C51.0227 11.0509 51.0914 10.7769 51.2283 10.5027C51.3653 10.2287 51.5023 9.95476 51.7079 9.74914C51.9135 9.54385 52.1875 9.3379 52.4617 9.2699C52.7357 9.13261 53.0779 9.06396 53.3519 9.06396C53.6945 9.06396 53.9687 9.13261 54.2427 9.2699C54.5166 9.40655 54.7909 9.54385 54.9962 9.74914C55.2018 9.95476 55.4074 10.2287 55.4758 10.5027C55.6127 10.7769 55.6814 11.1195 55.6814 11.3935C55.6814 11.7357 55.6127 12.0097 55.4758 12.2839C55.3388 12.5579 55.2018 12.8318 54.9962 13.0375C54.7909 13.2431 54.5166 13.4487 54.2427 13.517C53.9687 13.654 53.6262 13.7226 53.3519 13.7226C53.0096 13.7226 52.7357 13.654 52.4617 13.517C52.1875 13.38 51.9135 13.2431 51.7079 13.0375C51.5023 12.8318 51.297 12.5579 51.2283 12.2839C51.0914 12.0097 51.0227 11.7357 51.0227 11.3935Z" fill="#2CACE2"/>
<path d="M62.8062 19.34V27.6983H58.6954V19.4087H57.1884V15.9834H58.6954V14.2021C58.6954 13.243 58.764 12.4208 58.9696 11.8729C59.1066 11.3934 59.3809 10.9138 59.7235 10.5026C60.0658 10.0916 60.477 9.74905 60.8879 9.40645C61.3675 9.13251 61.8471 8.85856 62.3266 8.72159C62.8745 8.58462 63.3541 8.44763 63.8336 8.44763C64.1762 8.44763 64.5188 8.51595 64.7928 8.5846C65.067 8.65293 65.4093 8.79022 65.6833 8.92688V12.5581C65.4093 12.4208 65.1354 12.2842 64.9297 12.2155C64.7244 12.1469 64.4502 12.0782 64.1762 12.0782C64.0393 12.0782 63.8336 12.0782 63.6283 12.1469C63.4227 12.2155 63.2857 12.2842 63.1488 12.4895C63.0115 12.6264 62.8745 12.9004 62.8062 13.243V15.9147H65.6833V19.34H62.8062Z" fill="#2CACE2"/>
<path d="M71.5064 27.6297H67.3959V15.9148H71.5064V27.6297ZM67.1223 11.3935C67.1223 11.0509 67.1903 10.7769 67.3276 10.5027C67.4646 10.2287 67.6016 9.95476 67.8072 9.74914C68.0125 9.54385 68.2867 9.3379 68.5607 9.2699C68.8346 9.13261 69.1772 9.06396 69.4515 9.06396C69.7941 9.06396 70.068 9.13261 70.342 9.2699C70.6163 9.40655 70.8902 9.54385 71.0955 9.74914C71.3011 9.95476 71.5064 10.2287 71.5751 10.5027C71.7124 10.7769 71.7807 11.1195 71.7807 11.3935C71.7807 11.7357 71.7124 12.0097 71.5751 12.2839C71.4381 12.5579 71.3011 12.8318 71.0955 13.0375C70.8902 13.2431 70.6163 13.4487 70.342 13.517C70.068 13.654 69.7254 13.7226 69.4515 13.7226C69.1086 13.7226 68.8346 13.654 68.5607 13.517C68.2867 13.38 68.0125 13.2431 67.8072 13.0375C67.6016 12.8318 67.3963 12.5579 67.3276 12.2839C67.1903 12.0097 67.1223 11.7357 67.1223 11.3935Z" fill="#2CACE2"/>
<path d="M83.2213 19.7514C82.5365 19.2718 81.7826 18.9979 81.0291 18.9979C80.6182 18.9979 80.2756 19.0662 79.933 19.2032C79.5907 19.3405 79.3165 19.5458 79.0425 19.8197C78.7686 20.094 78.5626 20.3679 78.426 20.7102C78.2887 21.0528 78.2203 21.464 78.2203 21.875C78.2203 22.2862 78.2887 22.6971 78.426 23.0397C78.5626 23.382 78.7686 23.6562 79.0425 23.9302C79.3165 24.2041 79.5907 24.4098 79.933 24.5467C80.2756 24.684 80.6865 24.7523 81.0291 24.7523C81.7826 24.7523 82.5365 24.4781 83.2213 23.9302V27.4241C82.1939 27.8354 81.2347 28.1093 80.3442 28.1093C79.5221 28.1093 78.6999 27.972 77.8778 27.6981C77.1242 27.4241 76.4391 27.0132 75.8228 26.465C75.206 25.9171 74.7951 25.3002 74.3838 24.5467C74.0412 23.7932 73.8359 22.971 73.8359 22.0122C73.8359 21.0528 73.9729 20.2306 74.3152 19.4771C74.6581 18.7236 75.1373 18.0384 75.6855 17.4905C76.2334 16.9426 76.9869 16.5314 77.7411 16.1888C78.5626 15.8465 79.3848 15.7092 80.3442 15.7092C81.3717 15.7092 82.2625 15.9148 83.1527 16.3261V19.7514H83.2213Z" fill="#2CACE2"/>
<path d="M94.388 37.0152L95.1419 37.2205C95.0049 37.8374 94.7306 38.2483 94.3197 38.5909C93.9088 38.9335 93.4292 39.0705 92.881 39.0705C92.2645 39.0705 91.7849 38.9335 91.4423 38.7279C91.0997 38.5222 90.8257 38.1113 90.6201 37.7001C90.4148 37.2205 90.3462 36.741 90.3462 36.2617C90.3462 35.7135 90.4835 35.1656 90.6888 34.7544C90.8941 34.3434 91.237 34.0008 91.6479 33.7952C92.0592 33.5899 92.4697 33.4526 92.9493 33.4526C93.4975 33.4526 93.9774 33.5899 94.3197 33.8639C94.6623 34.1378 94.9362 34.5487 95.0732 35.0283L94.388 35.1656C94.2514 34.7544 94.0454 34.4801 93.8401 34.2748C93.5662 34.0692 93.2919 34.0008 92.9493 34.0008C92.5384 34.0008 92.1958 34.0692 91.9219 34.2748C91.6479 34.4801 91.4423 34.7544 91.3053 35.097C91.1684 35.4395 91.0997 35.7821 91.0997 36.1244C91.0997 36.6043 91.1684 37.0152 91.3053 37.3578C91.4423 37.7001 91.6479 37.974 91.9219 38.1113C92.1958 38.3166 92.5384 38.3853 92.881 38.3853C93.2919 38.3853 93.6345 38.2483 93.9088 38.0427C94.1141 37.8374 94.3197 37.4261 94.388 37.0152Z" fill="#060809"/>
<path d="M100.759 36.2617C100.759 36.9465 100.965 37.4264 101.307 37.8373C101.65 38.2486 102.129 38.3852 102.609 38.3852C103.157 38.3852 103.568 38.1799 103.979 37.8373C104.322 37.4264 104.527 36.8782 104.527 36.193C104.527 35.7821 104.458 35.3709 104.322 35.0286C104.185 34.686 103.979 34.4121 103.637 34.2748C103.362 34.0695 103.02 34.0008 102.678 34.0008C102.198 34.0008 101.718 34.2064 101.376 34.5487C100.965 34.823 100.759 35.4395 100.759 36.2617ZM100.006 36.2617C100.006 35.3709 100.28 34.6173 100.759 34.1378C101.239 33.6585 101.855 33.3843 102.678 33.3843C103.157 33.3843 103.637 33.5212 104.048 33.7265C104.458 34.0008 104.733 34.2748 105.007 34.7546C105.212 35.1656 105.349 35.6448 105.349 36.193C105.349 36.7412 105.212 37.2205 105.007 37.7004C104.801 38.1113 104.458 38.4539 104.048 38.6595C103.637 38.8648 103.226 39.0021 102.746 39.0021C102.198 39.0021 101.787 38.8648 101.376 38.6595C100.965 38.3852 100.691 38.0426 100.485 37.6317C100.143 37.2205 100.006 36.7412 100.006 36.2617Z" fill="#060809"/>
<path d="M111.789 35.8505H113.365C113.707 35.8505 113.981 35.8505 114.118 35.7818C114.324 35.7135 114.461 35.5765 114.529 35.4396C114.598 35.3026 114.666 35.097 114.666 34.9597C114.666 34.6857 114.598 34.4804 114.392 34.3434C114.187 34.2062 113.913 34.0695 113.502 34.0695H111.789V35.8505ZM111.036 38.9332V33.4526H113.433C113.913 33.4526 114.324 33.5213 114.529 33.5896C114.803 33.6583 115.009 33.8636 115.146 34.1378C115.283 34.4118 115.352 34.6857 115.352 34.9597C115.352 35.3709 115.214 35.6452 115.009 35.9191C114.735 36.1931 114.392 36.33 113.844 36.3987C114.05 36.467 114.187 36.604 114.256 36.6726C114.461 36.8779 114.666 37.0835 114.872 37.4261L115.831 38.9332H114.94L114.187 37.7687C113.981 37.4261 113.776 37.2208 113.639 37.0152C113.502 36.8096 113.365 36.7413 113.296 36.6726C113.159 36.604 113.091 36.5353 112.954 36.5353H111.72V38.9332H111.036Z" fill="#060809"/>
<path d="M121.791 36.056H123.23C123.71 36.056 124.052 35.9874 124.257 35.7821C124.463 35.5764 124.532 35.3711 124.532 35.0286C124.532 34.8229 124.463 34.6173 124.326 34.412C124.189 34.275 124.052 34.1378 123.846 34.0691C123.71 34.0691 123.504 34.0011 123.161 34.0011H121.791V36.056ZM121.106 38.9334V33.4529H123.161C123.504 33.4529 123.778 33.4529 123.984 33.5212C124.257 33.5899 124.463 33.6582 124.668 33.7952C124.874 33.9325 125.011 34.0691 125.08 34.3434C125.217 34.549 125.217 34.8229 125.217 35.0972C125.217 35.5764 125.08 35.9874 124.806 36.2616C124.532 36.6042 123.984 36.7412 123.23 36.7412H121.86V38.9334H121.106Z" fill="#060809"/>
<path d="M131.108 36.2617C131.108 36.9465 131.314 37.4264 131.656 37.8373C131.999 38.2486 132.478 38.3852 132.958 38.3852C133.506 38.3852 133.917 38.1799 134.328 37.8373C134.671 37.4264 134.876 36.8782 134.876 36.193C134.876 35.7821 134.807 35.3709 134.671 35.0286C134.534 34.686 134.328 34.4121 133.985 34.2748C133.711 34.0695 133.369 34.0008 133.027 34.0008C132.547 34.0008 132.067 34.2064 131.725 34.5487C131.314 34.823 131.108 35.4395 131.108 36.2617ZM130.355 36.2617C130.355 35.3709 130.629 34.6173 131.108 34.1378C131.587 33.6585 132.204 33.3843 133.027 33.3843C133.506 33.3843 133.985 33.5212 134.397 33.7265C134.807 34.0008 135.081 34.2748 135.356 34.7546C135.561 35.1656 135.698 35.6448 135.698 36.193C135.698 36.7412 135.561 37.2205 135.356 37.7004C135.15 38.1113 134.807 38.4539 134.397 38.6595C133.985 38.8648 133.574 39.0021 133.095 39.0021C132.547 39.0021 132.136 38.8648 131.725 38.6595C131.314 38.3852 131.04 38.0426 130.834 37.6317C130.491 37.2205 130.355 36.7412 130.355 36.2617Z" fill="#060809"/>
<path d="M141.795 35.8505H143.371C143.714 35.8505 143.988 35.8505 144.125 35.7818C144.262 35.7135 144.467 35.5765 144.536 35.4396C144.604 35.3026 144.673 35.097 144.673 34.9597C144.673 34.6857 144.604 34.4804 144.399 34.3434C144.193 34.2062 143.919 34.0695 143.508 34.0695H141.795V35.8505ZM141.042 38.9332V33.4526H143.44C143.919 33.4526 144.33 33.5213 144.536 33.5896C144.741 33.6583 145.015 33.8636 145.152 34.1378C145.289 34.4118 145.358 34.6857 145.358 34.9597C145.358 35.3709 145.221 35.6452 145.015 35.9191C144.741 36.1931 144.398 36.33 143.851 36.3987C144.056 36.467 144.193 36.604 144.262 36.6726C144.467 36.8779 144.673 37.0835 144.878 37.4261L145.837 38.9332H144.947L144.193 37.7687C143.988 37.4261 143.782 37.2208 143.645 37.0152C143.508 36.8096 143.371 36.7413 143.302 36.6726C143.165 36.604 143.097 36.5353 142.96 36.5353H141.727V38.9332H141.042Z" fill="#060809"/>
<path d="M151.66 36.6726H153.51L152.962 35.1656C152.756 34.6857 152.688 34.3434 152.551 34.0009C152.482 34.3434 152.414 34.6857 152.277 35.0283L151.66 36.6726ZM150.085 38.9335L152.209 33.4526H152.962L155.223 38.9335H154.401L153.784 37.2892H151.524L150.907 38.9335H150.085Z" fill="#060809"/>
<path d="M161.183 38.9334V34.1378H159.402V33.5212H163.718V34.1378H161.937V38.9334H161.183Z" fill="#060809"/>
<path d="M169.404 33.4526H168.65V38.9332H169.404V33.4526Z" fill="#060809"/>
<path d="M175.707 36.2617C175.707 36.9465 175.912 37.4264 176.255 37.8373C176.597 38.2486 177.077 38.3852 177.556 38.3852C178.104 38.3852 178.515 38.1799 178.927 37.8373C179.269 37.4264 179.475 36.8782 179.475 36.193C179.475 35.7821 179.406 35.3709 179.269 35.0286C179.132 34.686 178.927 34.4121 178.584 34.2748C178.31 34.0695 177.968 34.0008 177.625 34.0008C177.145 34.0008 176.666 34.2064 176.323 34.5487C175.912 34.823 175.707 35.4395 175.707 36.2617ZM174.953 36.2617C174.953 35.3709 175.227 34.6173 175.707 34.1378C176.186 33.6585 176.803 33.3843 177.625 33.3843C178.104 33.3843 178.584 33.5212 178.995 33.7265C179.406 34.0008 179.68 34.2748 179.954 34.7546C180.159 35.1656 180.297 35.6448 180.297 36.193C180.297 36.7412 180.159 37.2205 179.954 37.7004C179.748 38.1113 179.406 38.4539 178.995 38.6595C178.584 38.8648 178.173 39.0021 177.694 39.0021C177.145 39.0021 176.734 38.8648 176.323 38.6595C175.912 38.3852 175.638 38.0426 175.433 37.6317C175.09 37.2205 174.953 36.7412 174.953 36.2617Z" fill="#060809"/>
<path d="M185.983 38.9335V33.453H186.736L189.613 37.7688V33.453H190.299V38.9335H189.545L186.668 34.6174V38.9335H185.983Z" fill="#060809"/>
<path d="M203.726 19.4086C202.904 18.7921 202.219 18.2439 201.534 17.696C198.451 15.2982 195.368 12.969 192.286 10.5712C191.806 10.1602 191.737 10.0233 192.148 9.5437C192.423 9.13246 192.765 8.79018 193.039 8.37894C193.382 7.89938 193.656 7.89938 194.066 8.24197C197.081 10.5025 200.027 12.832 203.041 15.0925C204.548 16.2573 206.124 17.4217 207.631 18.5865C208.111 18.9291 208.111 19.2034 207.7 19.6143C203.521 23.5191 199.342 27.424 195.163 31.3975C194.546 31.9457 193.998 32.151 193.176 32.151H23.8253C22.8662 32.151 22.8662 32.151 22.8662 31.1922V29.6848C22.8662 29.3422 23.0718 29.1369 23.4144 29.1369H192.217C192.696 29.1369 192.97 28.9996 193.313 28.7257C196.602 25.7113 199.958 22.6973 203.247 19.6829C203.384 19.6143 203.521 19.5456 203.726 19.4086Z" fill="#2CACE2"/>
</svg>
