<svg width="40" height="24" viewBox="0 0 40 24" fill="none" xmlns="http://www.w3.org/2000/svg">
<g clip-path="url(#clip0_371_2211)">
<path d="M0.0664062 0.07547H39.9335V30.2641H0.0664062V0.07547Z" fill="#DE2910"/>
<path d="M6.71082 3.09433L9.05421 11.286L2.91919 6.22324H10.5024L4.36756 11.286L6.71082 3.09433ZM12.2158 3.87094L13.8753 1.7052L13.6534 4.56528L12.3529 2.10339L14.6792 3.22686L12.2158 3.87094ZM14.6977 6.32663L16.967 5.06218L15.7854 7.60029L15.4279 4.75803L17.1879 6.81886L14.6977 6.32663ZM14.7354 10.2269L17.2615 10.1239L15.2711 11.8936L15.9656 9.13297L16.8323 11.83L14.7354 10.2269ZM12.3176 12.7174L14.6828 13.7304L12.2452 14.49L13.8242 12.248L13.707 15.1159L12.3176 12.7174Z" fill="#FFDE00"/>
</g>
<defs>
<clipPath id="clip0_371_2211">
<rect width="40" height="24" fill="white"/>
</clipPath>
</defs>
</svg>
