<svg width="40" height="24" viewBox="0 0 40 24" fill="none" xmlns="http://www.w3.org/2000/svg">
<g clip-path="url(#clip0_371_2205)">
<path d="M0 0H40V24H0V0Z" fill="white"/>
<path d="M0 0H40V1.84619H0V0ZM0 3.69238H40V5.53857H0V3.69238ZM0 7.3846H40V9.23079H0V7.3846ZM0 11.077H40V12.9232H0V11.077ZM0 14.7692H40V16.6154H0V14.7692ZM0 18.4616H40V20.3078H0V18.4616ZM0 22.1538H40V24H0V22.1538Z" fill="#B22234"/>
<path d="M0 0.0833282H17.6V12.9165H0V0.0833282Z" fill="#3C3B6E"/>
<path d="M0.826904 1.12514L1.24622 1.43864L1.08606 1.94597L1.50524 1.63246L1.92456 1.94597L1.7644 1.43864L2.18357 1.12514H1.6654L1.50524 0.617966L1.34508 1.12514H0.826904ZM3.74484 1.12514L4.16401 1.43864L4.00385 1.94597L4.42317 1.63246L4.84249 1.94597L4.68233 1.43864L5.1015 1.12514H4.58333L4.42317 0.617966L4.26301 1.12514H3.74484ZM6.66277 1.12514L7.08194 1.43864L6.92178 1.94597L7.3411 1.63246L7.76028 1.94597L7.60012 1.43864L8.01944 1.12514H7.50126L7.3411 0.617966L7.18094 1.12514H6.66277ZM9.5807 1.12514L9.99988 1.43864L9.83972 1.94597L10.259 1.63246L10.6782 1.94597L10.5181 1.43864L10.9374 1.12514H10.4191L10.259 0.617966L10.0989 1.12514H9.5807ZM12.4985 1.12514L12.9178 1.43864L12.7577 1.94597L13.1768 1.63246L13.5961 1.94597L13.436 1.43864L13.8552 1.12514H13.337L13.1768 0.617966L13.0167 1.12514H12.4985ZM15.4164 1.12514L15.8356 1.43864L15.6754 1.94597L16.0948 1.63246L16.5139 1.94597L16.3538 1.43864L16.7731 1.12514H16.2549L16.0948 0.617966L15.9346 1.12514H15.4164ZM2.2858 2.41223L2.70512 2.72574L2.54496 3.23291L2.96428 2.9194L3.38345 3.23291L3.22329 2.72574L3.64261 2.41223H3.12429L2.96428 1.90491L2.80412 2.41223H2.2858ZM5.20373 2.41223L5.62305 2.72574L5.46289 3.23291L5.88206 2.9194L6.30138 3.23291L6.14122 2.72574L6.5604 2.41223H6.04222L5.88206 1.90491L5.7219 2.41223H5.20373ZM8.12166 2.41223L8.54098 2.72574L8.38082 3.23291L8.8 2.9194L9.21932 3.23291L9.05916 2.72574L9.47833 2.41223H8.96016L8.8 1.90491L8.63984 2.41223H8.12166ZM11.0396 2.41223L11.4588 2.72574L11.2986 3.23291L11.7179 2.9194L12.1371 3.23291L11.9769 2.72574L12.3963 2.41223H11.8781L11.7179 1.90491L11.5578 2.41223H11.0396ZM13.9574 2.41223L14.3767 2.72574L14.2165 3.23291L14.6357 2.9194L15.055 3.23291L14.8949 2.72574L15.3141 2.41223H14.7959L14.6357 1.90491L14.4757 2.41223H13.9574ZM0.826904 3.69917L1.24622 4.01268L1.08606 4.52L1.50524 4.20649L1.92456 4.52L1.7644 4.01268L2.18357 3.69917H1.6654L1.50524 3.192L1.34508 3.69917H0.826904ZM3.74484 3.69917L4.16401 4.01268L4.00385 4.52L4.42317 4.20649L4.84249 4.52L4.68233 4.01268L5.1015 3.69917H4.58333L4.42317 3.192L4.26301 3.69917H3.74484ZM6.66277 3.69917L7.08194 4.01268L6.92178 4.52L7.3411 4.20649L7.76028 4.52L7.60012 4.01268L8.01944 3.69917H7.50126L7.3411 3.192L7.18094 3.69917H6.66277ZM9.5807 3.69917L9.99988 4.01268L9.83972 4.52L10.259 4.20649L10.6782 4.52L10.5181 4.01268L10.9374 3.69917H10.4191L10.259 3.192L10.0989 3.69917H9.5807ZM12.4985 3.69917L12.9178 4.01268L12.7577 4.52L13.1768 4.20649L13.5961 4.52L13.436 4.01268L13.8552 3.69917H13.337L13.1768 3.192L13.0167 3.69917H12.4985ZM15.4164 3.69917L15.8356 4.01268L15.6754 4.52L16.0948 4.20649L16.5139 4.52L16.3538 4.01268L16.7731 3.69917H16.2549L16.0948 3.192L15.9346 3.69917H15.4164ZM2.32188 4.99049L2.74105 5.304L2.58104 5.81117L3.00021 5.49766L3.41953 5.81117L3.25937 5.30385L3.67854 4.99049H3.16037L3.00021 4.48317L2.84005 4.99049H2.32188ZM5.23981 4.99049L5.65898 5.304L5.49882 5.81117L5.91814 5.49766L6.33732 5.81117L6.17716 5.30385L6.59648 4.99049H6.0783L5.91814 4.48317L5.75798 4.99049H5.23981ZM8.15774 4.99049L8.57692 5.304L8.41676 5.81117L8.83608 5.49766L9.25525 5.81117L9.09509 5.30385L9.51441 4.99049H8.99609L8.83608 4.48317L8.67592 4.99049H8.15774ZM11.0755 4.99049L11.4949 5.304L11.3347 5.81117L11.7539 5.49766L12.1732 5.81117L12.013 5.30385L12.4322 4.99049H11.914L11.7539 4.48317L11.5937 4.99049H11.0755ZM13.9935 4.99049L14.4126 5.304L14.2525 5.81117L14.6718 5.49766L15.091 5.81117L14.9308 5.30385L15.3501 4.99049H14.832L14.6718 4.48317L14.5116 4.99049H13.9935ZM0.871198 6.26672L1.29052 6.58008L1.13036 7.0874L1.54953 6.77389L1.96885 7.0874L1.80869 6.58008L2.22786 6.26672H1.70969L1.54953 5.7594L1.38937 6.26672H0.871198ZM3.78913 6.26672L4.2083 6.58008L4.04814 7.0874L4.46746 6.77389L4.88664 7.0874L4.72662 6.58008L5.1458 6.26672H4.62762L4.46746 5.7594L4.3073 6.26672H3.78913ZM6.70706 6.26672L7.12624 6.58008L6.96608 7.0874L7.3854 6.77389L7.80457 7.0874L7.64441 6.58008L8.06373 6.26672H7.54556L7.3854 5.7594L7.22524 6.26672H6.70706ZM9.62485 6.26672L10.0442 6.58008L9.88401 7.0874L10.3032 6.77389L10.7225 7.0874L10.5623 6.58008L10.9817 6.26672H10.4633L10.3032 5.7594L10.1432 6.26672H9.62485ZM12.5428 6.26672L12.962 6.58008L12.8019 7.0874L13.2211 6.77389L13.6404 7.0874L13.4803 6.58008L13.8995 6.26672H13.3813L13.2211 5.7594L13.061 6.26672H12.5428ZM15.4607 6.26672L15.8799 6.58008L15.7197 7.0874L16.1391 6.77389L16.5582 7.0874L16.3981 6.58008L16.8174 6.26672H16.2992L16.1391 5.7594L15.9789 6.26672H15.4607ZM0.898624 8.79985L1.3178 9.11336L1.15764 9.62068L1.57696 9.30717L1.99613 9.62068L1.83597 9.11336L2.25529 8.79985H1.73712L1.57696 8.29268L1.4168 8.79985H0.898624ZM3.81641 8.79985L4.23573 9.11336L4.07557 9.62068L4.49474 9.30717L4.91406 9.62068L4.7539 9.11336L5.17308 8.79985H4.6549L4.49474 8.29268L4.33458 8.79985H3.81641ZM6.73434 8.79985L7.15352 9.11336L6.9935 9.62068L7.41268 9.30717L7.832 9.62068L7.67184 9.11336L8.09101 8.79985H7.57284L7.41268 8.29268L7.25252 8.79985H6.73434ZM9.65228 8.79985L10.0715 9.11336L9.91129 9.62068L10.3306 9.30717L10.7498 9.62068L10.5898 9.11336L11.0089 8.79985H10.4908L10.3306 8.29268L10.1705 8.79985H9.65228ZM12.5701 8.79985L12.9894 9.11336L12.8292 9.62068L13.2484 9.30717L13.6677 9.62068L13.5076 9.11336L13.9269 8.79985H13.4086L13.2484 8.29268L13.0884 8.79985H12.5701ZM15.488 8.79985L15.9072 9.11336L15.7472 9.62068L16.1663 9.30717L16.5857 9.62068L16.4255 9.11336L16.8447 8.79985H16.3265L16.1663 8.29268L16.0062 8.79985H15.488ZM0.862984 11.3629L1.28216 11.6764L1.122 12.1837L1.54132 11.8702L1.96049 12.1837L1.80033 11.6764L2.21965 11.3629H1.70133L1.54132 10.8557L1.38116 11.3629H0.862984ZM3.78077 11.3629L4.20009 11.6764L4.03993 12.1837L4.4591 11.8702L4.87842 12.1837L4.71826 11.6764L5.13744 11.3629H4.61926L4.4591 10.8557L4.29894 11.3629H3.78077ZM6.6987 11.3629L7.11788 11.6764L6.95786 12.1837L7.37704 11.8702L7.79636 12.1837L7.6362 11.6764L8.05537 11.3629H7.5372L7.37704 10.8557L7.21688 11.3629H6.6987ZM9.61664 11.3629L10.0358 11.6764L9.87565 12.1837L10.295 11.8702L10.7141 12.1837L10.5541 11.6764L10.9733 11.3629H10.4551L10.295 10.8557L10.1348 11.3629H9.61664ZM12.5344 11.3629L12.9537 11.6764L12.7936 12.1837L13.2128 11.8702L13.6321 12.1837L13.4719 11.6764L13.8912 11.3629H13.3729L13.2128 10.8557L13.0527 11.3629H12.5344ZM15.4524 11.3629L15.8715 11.6764L15.7115 12.1837L16.1307 11.8702L16.55 12.1837L16.3899 11.6764L16.809 11.3629H16.2909L16.1307 10.8557L15.9705 11.3629H15.4524ZM2.33053 7.52061L2.7497 7.83412L2.58969 8.34129L3.00886 8.02778L3.42818 8.34129L3.26802 7.83412L3.6872 7.52061H3.16902L3.00886 7.01329L2.8487 7.52061H2.33053ZM5.24846 7.52061L5.66764 7.83412L5.50748 8.34129L5.9268 8.02778L6.34597 8.34129L6.18596 7.83412L6.60513 7.52061H6.08696L5.9268 7.01329L5.76664 7.52061H5.24846ZM8.1664 7.52061L8.58557 7.83412L8.42541 8.34129L8.84473 8.02778L9.2639 8.34129L9.10374 7.83412L9.52306 7.52061H9.00489L8.84473 7.01329L8.68457 7.52061H8.1664ZM11.0842 7.52061L11.5035 7.83412L11.3433 8.34129L11.7625 8.02778L12.1818 8.34129L12.0217 7.83412L12.4409 7.52061H11.9227L11.7625 7.01329L11.6024 7.52061H11.0842ZM14.0021 7.52061L14.4213 7.83412L14.2611 8.34129L14.6805 8.02778L15.0996 8.34129L14.9396 7.83412L15.3588 7.52061H14.8406L14.6805 7.01329L14.5203 7.52061H14.0021ZM2.32188 10.0796L2.7412 10.3931L2.58104 10.9004L3.00021 10.5869L3.41953 10.9004L3.25937 10.3931L3.67854 10.0796H3.16037L3.00021 9.57238L2.84005 10.0796H2.32188ZM5.23981 10.0796L5.65898 10.3931L5.49882 10.9004L5.91814 10.5869L6.33746 10.9004L6.1773 10.3931L6.59648 10.0796H6.0783L5.91814 9.57238L5.75798 10.0796H5.23981ZM8.15774 10.0796L8.57692 10.3931L8.41676 10.9004L8.83608 10.5869L9.25525 10.9004L9.09509 10.3931L9.51441 10.0796H8.99624L8.83608 9.57238L8.67592 10.0796H8.15774ZM11.0755 10.0796L11.4949 10.3931L11.3347 10.9004L11.7539 10.5869L12.1732 10.9004L12.013 10.3931L12.4322 10.0796H11.914L11.7539 9.57238L11.5937 10.0796H11.0755ZM13.9935 10.0796L14.4126 10.3931L14.2525 10.9004L14.6718 10.5869L15.091 10.9004L14.931 10.3931L15.3501 10.0796H14.832L14.6718 9.57238L14.5116 10.0796H13.9935Z" fill="white"/>
</g>
<defs>
<clipPath id="clip0_371_2205">
<rect width="40" height="24" fill="white"/>
</clipPath>
</defs>
</svg>
